PathFileType	4	(X/Y/Z)	/home/abdul/Desktop/myosuite/custom_workspace/IK/output/S13_12_1.trc
DataRate	CameraRate	NumFrames	NumMarkers	Units	OrigDataRate	OrigDataStartFrame	OrigNumFrames
200.0	200.0	28	3	mm	200.0	376	1500
Frame#	Time	V_Shoulder			V_Elbow			V_Wrist		
		X1	Y1	Z1	X2	Y2	Z2	X3	Y3	Z3

376	1.875	-70.2075337732821	577.9194515511064	338.2158321988204	-196.32506680304866	454.8420294842286	27.776560956914494	-104.95690469149766	202.28649423532966	45.78613740381539
377	1.88	-70.24832316245478	577.9011906732725	338.2095639187864	-196.30212217124014	454.7750638827884	27.77791219507433	-104.84461523506378	202.23913116016274	45.642342667796584
378	1.885	-70.29043540681472	577.8852264856359	338.20282187641106	-196.27952365811404	454.7106763320915	27.777926597172858	-104.73176066483117	202.19452719491767	45.49804186083672
379	1.89	-70.33383491219047	577.8715367841354	338.19561010652615	-196.25728303090187	454.6489289937173	27.776570086685556	-104.61830662432071	202.15274108692256	45.35336017637443
380	1.895	-70.37848632073542	577.8600994244666	338.1879326752316	-196.23541682872622	454.5898874207622	27.773809477482185	-104.50422419148728	202.11383557638783	45.208436299423994
381	1.9	-70.42435453056805	577.8508923544409	338.1797936901093	-196.21394635374182	454.5336205377957	27.769612500559568	-104.38948988140143	202.07787755763667	45.06342269120871
382	1.905	-70.47140471470512	577.8438936459835	338.17119731046165	-196.19289765546898	454.4802006097884	27.7639478333995	-104.27408562975805	202.04493824135326	44.91848584830589
383	1.91	-70.51960233927792	577.839081526722	338.16214775755446	-196.17230150829624	454.42970319971687	27.75678513233252	-104.15799875706537	202.0150933171646	44.77380653506401
384	1.915	-70.56891318102377	577.8364344111133	338.15264932484075	-196.15219338211028	454.38220711458735	27.748095068249523	-104.04122191344112	201.98842311583587	44.62957998808916
385	1.92	-70.61930334404461	577.8359309310572	338.1427063881448	-196.13261340599126	454.33779433965424	27.73784936596128	-103.92375300401466	201.96501277032596	44.486016091638604
386	1.925	-70.67073927582659	577.8375499659517	338.1323234157828	-196.11360632489428	454.29654996065045	27.72602084746174	-103.80559509501117	201.94495237491918	44.34333952280234
387	1.93	-70.72318778251459	577.8412706721344	338.1215049786006	-196.09522144921965	454.2585620738834	27.71258347930344	-103.68675630066951	201.92833714162208	44.20178986540108
388	1.935	-70.7766160434373	577.8470725116669	338.1102557599061	-196.07751259715818	454.22392168409647	27.697512424244515	-103.56724965122436	201.91526755299049	44.06162169157948
389	1.94	-70.83099162487882	577.8549352804075	338.098580565275	-196.0605380296819	454.1927225900371	27.680784097275588	-103.4470929422618	201.90584951052944	43.923104610127226
390	1.945	-70.88628249309382	577.8648391353305	338.08648433221055	-196.04436037803788	454.16506125771576	27.662376226082692	-103.32630856583683	201.90019447779304	43.78652328061804
391	1.95	-70.94245702656484	577.8767646210405	338.07397213963606	-196.0290465635901	454.14103668139	27.642267915948946	-103.20492332382148	201.89841961729522	43.652177392517416
392	1.955	-70.99948402750026	577.8906926954378	338.06104921720015	-196.0146677098451	454.1207502323492	27.62043971904398	-103.08296822403102	201.9006479203323	43.52038160847354
393	1.96	-71.0573327325733	577.9066047544894	338.0477209543754	-196.00129904648915	454.10430549562693	27.596873707996156	-102.96047825975529	201.90700832881114	43.391465471073644
394	1.965	-71.11597282290289	577.924482656062	338.03399290933197	-195.9890198052599	454.09180809481154	27.571553553588743	-102.8374921733996	201.9176358481729	43.26577327241804
395	1.97	-71.1753744332783	577.9443087427727	338.0198708175665	-195.97791310747328	454.0833655051781	27.544464606368408	-102.71405220501643	201.9326716505013	43.14366388593833
396	1.975	-71.23550816063026	577.966065863819	338.00536060026957	-195.9680658430271	454.07908685540656	27.51559398190212	-102.59020382658419	201.95226316690957	43.02551055996321
397	1.98	-71.29634507175255	577.989737395747	337.9904683724121	-195.95956854070567	454.0790827182044	27.48493064936829	-102.4659954629612	201.97656416830597	42.91170067261524
398	1.985	-71.35785671027871	578.0153072621171	337.97520045053676	-195.9525152296177	454.08346489019465	27.452465523119237	-102.34147820051348	202.00573483364877	42.80263544770548
399	1.99	-71.42001510291924	578.0427599520343	337.95956336023437	-195.94700329160833	454.09234616147756	27.41819155680553	-102.21670548448128	202.0399418048172	42.69872963137898
400	1.995	-71.48279276496636	578.0720805375075	337.9435638432927	-195.94313330450035	454.1058400753196	27.382103839609098	-102.09173280621272	202.07935822724082	42.60041112935357
401	2.0	-71.54616270507314	578.1032546896018	337.92720886450013	-195.9410088760365	454.12406067846655	27.34419969409085	-101.96661738145224	202.12416377545338	42.508120604686475
402	2.005	-71.61009842931593	578.1362686933568	337.91050561809095	-195.94073646841315	454.14712226262054	27.304478775121147	-101.84141782092605	202.17454466276155	42.422311036098534
403	2.01	-71.67457394454888	578.1711094614375	337.893461533818	-195.9424252133212	454.1751390976601	27.26294316932704	-101.71619379451721	202.2306936342473	42.34344723698308
